HIERARCHY
ROOT joint_Root
{
	OFFSET 0.0 0.0 0.0
	CHANNELS 6 Xposition Yposition Zposition Zrotation Xrotation Yrotation 
	JOINT Hips
	{
		OFFSET 4.5925 91.4895 -427.239
		CHANNELS 6 Xposition Yposition Zposition Zrotation Xrotation Yrotation 
		JOINT Spine
		{
			OFFSET 15.7357 0.0 0.0
			CHANNELS 6 Xposition Yposition Zposition Zrotation Xrotation Yrotation 
			JOINT Chest
			{
				OFFSET 8.98455 -0.406207 0.0
				CHANNELS 6 Xposition Yposition Zposition Zrotation Xrotation Yrotation 
				JOINT Neck
				{
					OFFSET 16.3773 0.0 0.0
					CHANNELS 6 Xposition Yposition Zposition Zrotation Xrotation Yrotation 
					JOINT Head
					{
						OFFSET 6.45672 0.0 0.0
						CHANNELS 6 Xposition Yposition Zposition Zrotation Xrotation Yrotation 
						End Site
						{
							OFFSET 0.0 0.0 0.0
						}
					}
				}
				JOINT Shoulder_L
				{
					OFFSET 12.9942 -0.242716 4.98039
					CHANNELS 6 Xposition Yposition Zposition Zrotation Xrotation Yrotation 
					JOINT UpperArm_L
					{
						OFFSET 5.34809 0.0 0.0
						CHANNELS 6 Xposition Yposition Zposition Zrotation Xrotation Yrotation 
						JOINT LowerArm_L
						{
							OFFSET 24.3286 1.87007e-05 0.0
							CHANNELS 6 Xposition Yposition Zposition Zrotation Xrotation Yrotation 
							JOINT Hand_L
							{
								OFFSET 22.2916 0.0 0.0
								CHANNELS 6 Xposition Yposition Zposition Zrotation Xrotation Yrotation 
								End Site
								{
									OFFSET 0.0 0.0 0.0
								}
							}
						}
					}
				}
				JOINT Shoulder_R
				{
					OFFSET 12.9945 -0.242716 -4.98039
					CHANNELS 6 Xposition Yposition Zposition Zrotation Xrotation Yrotation 
					JOINT UpperArm_R
					{
						OFFSET -5.34813 0.0 0.0
						CHANNELS 6 Xposition Yposition Zposition Zrotation Xrotation Yrotation 
						JOINT LowerArm_R
						{
							OFFSET -24.3289 0.000322201 0.0
							CHANNELS 6 Xposition Yposition Zposition Zrotation Xrotation Yrotation 
							JOINT Hand_R
							{
								OFFSET -22.2915 -0.000108084 0.0
								CHANNELS 6 Xposition Yposition Zposition Zrotation Xrotation Yrotation 
								End Site
								{
									OFFSET 0.0 0.0 0.0
								}
							}
						}
					}
				}
			}
		}
		JOINT UpperLeg_L
		{
			OFFSET -2.19248 -6.46944 0.0
			CHANNELS 6 Xposition Yposition Zposition Zrotation Xrotation Yrotation 
			JOINT LowerLeg_L
			{
				OFFSET 39.0811 0.0 -1.23785e-05
				CHANNELS 6 Xposition Yposition Zposition Zrotation Xrotation Yrotation 
				JOINT Foot_L
				{
					OFFSET 40.9854 0.0 -1.26872e-05
					CHANNELS 6 Xposition Yposition Zposition Zrotation Xrotation Yrotation 
					JOINT Toes_L
					{
						OFFSET 11.7543 0.0 0.0
						CHANNELS 6 Xposition Yposition Zposition Zrotation Xrotation Yrotation 
						End Site
						{
							OFFSET 0.0 0.0 0.0
						}
					}
				}
			}
		}
		JOINT UpperLeg_R
		{
			OFFSET -2.19251 6.46944 0.0
			CHANNELS 6 Xposition Yposition Zposition Zrotation Xrotation Yrotation 
			JOINT LowerLeg_R
			{
				OFFSET -39.0811 -0.00228153 -0.0401928
				CHANNELS 6 Xposition Yposition Zposition Zrotation Xrotation Yrotation 
				JOINT Foot_R
				{
					OFFSET -40.9854 0.0 0.0
					CHANNELS 6 Xposition Yposition Zposition Zrotation Xrotation Yrotation 
					JOINT Toes_R
					{
						OFFSET -11.7543 0.0 0.0
						CHANNELS 6 Xposition Yposition Zposition Zrotation Xrotation Yrotation 
						End Site
						{
							OFFSET 0.0 0.0 0.0
						}
					}
				}
			}
		}
	}
}
MOTION
Frames:	4
Frame Time:	0.0333333
0.000000 0.000000 0.000000 0.000000 0.000000 -0.000000 1.977050 90.537600 -1.278780 90.114200 -8.499200 14.056100 15.735700 0.000005 -0.000001 87.015100 83.325100 -88.226900 8.984550 -0.406207 -0.000000 5.560040 -0.670200 -2.388180 16.377300 -0.000001 -0.000001 37.895900 -4.764560 2.377720 6.456720 -0.000001 -0.000000 21.104000 -6.806070 -4.213930 12.994200 -0.242716 4.980390 -86.968100 -8.442900 -70.162900 5.348090 -0.000007 -0.000001 -66.551600 -39.839000 -87.315100 24.328600 0.000019 0.000005 28.630800 10.411000 -71.684500 22.291600 -0.000001 0.000005 28.728700 5.287970 0.407115 12.994500 -0.242716 -4.980390 91.587500 -6.475960 -76.194900 -5.348130 -0.000001 -0.000004 -56.572600 -34.648800 -80.403200 -24.328900 0.000322 -0.000009 9.228340 3.001980 -72.137200 -22.291500 -0.000108 -0.000004 33.445000 5.472350 -5.458510 -2.192480 -6.469440 -0.000000 -174.831000 -18.180800 3.388680 39.081100 -0.000007 -0.000012 -0.126845 0.202720 32.035200 40.985400 -0.000006 -0.000013 1.775010 3.631390 -70.958600 11.754300 -0.000000 0.000003 -0.000069 -0.000753 -16.606600 -2.192510 6.469440 -0.000001 171.537000 16.754500 -177.026000 -39.081100 -0.002282 -0.040193 -0.198366 0.323060 31.973900 -40.985400 0.000008 0.000006 1.936570 13.704800 -70.265900 -11.754300 -0.000006 -0.000006 -0.004023 -0.051680 -18.675300
0.000000 0.000000 0.000000 0.000000 0.000000 -0.000000 1.965370 90.510000 -0.947857 90.069200 -8.313420 13.995000 15.735700 0.000005 -0.000001 87.156800 83.401000 -88.384300 8.984550 -0.406207 -0.000000 5.410330 -0.627963 -2.422460 16.377300 -0.000001 -0.000001 37.807000 -4.792060 2.222700 6.456720 -0.000001 -0.000000 20.946900 -6.768760 -4.488980 12.994200 -0.242716 4.980390 -86.963200 -8.431070 -70.108100 5.348090 -0.000007 -0.000001 -66.709900 -39.911500 -87.766700 24.328600 0.000019 0.000005 28.479100 10.416100 -71.568100 22.291600 -0.000001 0.000005 28.709400 5.290550 0.335566 12.994500 -0.242716 -4.980390 91.614900 -6.559510 -76.136800 -5.348130 -0.000001 -0.000004 -56.753100 -34.886900 -80.689900 -24.328900 0.000322 -0.000009 9.156480 2.985520 -72.096000 -22.291500 -0.000108 -0.000004 33.491700 5.473720 -5.510260 -2.192480 -6.469440 -0.000000 -174.826000 -17.939600 3.533130 39.081100 -0.000007 -0.000012 -0.131118 0.209282 32.068000 40.985400 -0.000006 -0.000013 1.732230 3.579720 -71.200800 11.754300 -0.000000 0.000003 -0.000079 -0.000837 -16.609800 -2.192510 6.469440 -0.000001 171.469000 16.851500 -176.782000 -39.081100 -0.002282 -0.040193 -0.202623 0.330239 31.945900 -40.985400 0.000008 0.000006 1.883420 13.667600 -70.494600 -11.754300 -0.000006 -0.000006 -0.003962 -0.051043 -18.649400
0.000000 0.000000 0.000000 0.000000 0.000000 -0.000000 1.957550 90.479000 -0.622661 90.030700 -8.125020 13.919400 15.735700 0.000005 -0.000001 87.672900 83.447000 -88.941900 8.984550 -0.406207 -0.000000 5.324980 -0.503981 -2.511560 16.377300 -0.000001 -0.000001 37.552300 -4.586350 2.332060 6.456720 -0.000001 -0.000000 20.889200 -7.026970 -4.768610 12.994200 -0.242716 4.980390 -86.907800 -8.510860 -69.946600 5.348090 -0.000007 -0.000001 -67.041400 -39.814400 -88.437300 24.328600 0.000019 0.000005 28.453100 10.488700 -71.431100 22.291600 -0.000001 0.000005 28.648000 5.291250 0.316279 12.994500 -0.242716 -4.980390 91.625200 -6.520450 -75.971600 -5.348130 -0.000001 -0.000004 -56.958200 -35.265600 -81.119200 -24.328900 0.000322 -0.000009 9.137670 3.005210 -71.950300 -22.291500 -0.000108 -0.000004 33.463800 5.472640 -5.469710 -2.192480 -6.469440 -0.000000 -174.834000 -17.705800 3.656750 39.081100 -0.000007 -0.000012 -0.134370 0.214133 32.108800 40.985400 -0.000006 -0.000013 1.693390 3.530810 -71.447200 11.754300 -0.000000 0.000003 -0.000082 -0.000869 -16.611000 -2.192510 6.469440 -0.000001 171.379000 16.995200 -176.553000 -39.081100 -0.002282 -0.040193 -0.208058 0.339168 31.929800 -40.985400 0.000008 0.000006 1.824890 13.630200 -70.726900 -11.754300 -0.000006 -0.000006 -0.003744 -0.048746 -18.555900
0.000000 0.000000 0.000000 0.000000 0.000000 -0.000000 1.952860 90.444700 -0.289940 90.013200 -7.877980 13.890400 15.735700 0.000005 -0.000001 88.024700 83.451800 -89.321700 8.984550 -0.406207 -0.000000 5.319190 -0.422743 -2.571350 16.377300 -0.000001 -0.000001 37.365400 -4.571320 2.150180 6.456720 -0.000001 -0.000000 20.690600 -7.020170 -4.949090 12.994200 -0.242716 4.980390 -86.892500 -8.467660 -69.761500 5.348090 -0.000007 -0.000001 -67.246900 -39.813000 -89.007200 24.328600 0.000019 0.000005 28.468900 10.563900 -71.319900 22.291600 -0.000001 0.000005 28.629800 5.290300 0.342551 12.994500 -0.242716 -4.980390 91.647500 -6.491220 -75.725500 -5.348130 -0.000001 -0.000004 -57.344200 -35.562900 -81.841400 -24.328900 0.000322 -0.000009 9.100380 3.021060 -71.790800 -22.291500 -0.000108 -0.000004 33.262200 5.473140 -5.488110 -2.192480 -6.469440 -0.000000 -174.856000 -17.446100 3.822660 39.081100 -0.000007 -0.000012 -0.139583 0.222108 32.147400 40.985400 -0.000006 -0.000013 1.676270 3.531320 -71.692700 11.754300 -0.000000 0.000003 -0.000081 -0.000857 -16.610600 -2.192510 6.469440 -0.000001 171.233000 17.131600 -176.272000 -39.081100 -0.002282 -0.040193 -0.219012 0.356869 31.921000 -40.985400 0.000008 0.000006 1.760990 13.620700 -70.970200 -11.754300 -0.000006 -0.000006 -0.003586 -0.047059 -18.487100
